<svg xmlns="http://www.w3.org/2000/svg" version="1.1" xmlns:xlink="http://www.w3.org/1999/xlink" xmlns:svgjs="http://svgjs.com/svgjs" width="1000" height="1000"><rect width="1000" height="1000" rx="250" ry="250" fill="#ffffff"></rect><g transform="matrix(4,0,0,4,-0.0024003982543945312,-1.4879722595214844)"><svg xmlns="http://www.w3.org/2000/svg" version="1.1" xmlns:xlink="http://www.w3.org/1999/xlink" xmlns:svgjs="http://svgjs.com/svgjs" width="250" height="250"><svg width="250" height="250" viewBox="0 0 66.145832 66.145835" version="1.1" id="svg1" xml:space="preserve" inkscape:version="1.3 (0e150ed6c4, 2023-07-21)" sodipodi:docname="mch-logo-single-dark-transparent.svg" xmlns:inkscape="http://www.inkscape.org/namespaces/inkscape" xmlns:sodipodi="http://sodipodi.sourceforge.net/DTD/sodipodi-0.dtd" xmlns="http://www.w3.org/2000/svg" xmlns:svg="http://www.w3.org/2000/svg"><sodipodi:namedview id="namedview1" pagecolor="#767676" bordercolor="#eeeeee" borderopacity="1" inkscape:showpageshadow="0" inkscape:pageopacity="0" inkscape:pagecheckerboard="0" inkscape:deskcolor="#d1d1d1" inkscape:document-units="px" inkscape:zoom="1.4878904" inkscape:cx="-89.388307" inkscape:cy="42.005783" inkscape:window-width="3440" inkscape:window-height="1377" inkscape:window-x="-8" inkscape:window-y="-8" inkscape:window-maximized="1" inkscape:current-layer="layer1"></sodipodi:namedview><defs id="defs1"></defs><g inkscape:label="Ebene 1" inkscape:groupmode="layer" id="layer1" style="fill:#000000;fill-opacity:1"><path style="fill:#000000;stroke-width:1.03416" d="m 43.360747,50.424941 c -0.07316,-0.07315 -7.681898,-0.162545 -16.908279,-0.198608 -9.226382,-0.03606 -16.9599355,-0.07248 -17.185675,-0.08092 -0.2257396,-0.0086 -1.7957878,0.04216 -3.4889882,0.11246 L 2.6992571,50.385683 2.407962,49.619517 2.1166667,48.853353 2.6874575,48.391154 3.2582468,47.928956 7.0149825,48.045568 c 2.06621,0.06414 5.8429925,0.172963 8.3928585,0.241838 l 4.636117,0.125226 -0.715832,-0.663757 c -0.393706,-0.365067 -0.79521,-0.91386 -0.892228,-1.21954 l -0.176399,-0.555787 h -1.726613 -1.726613 l -0.360204,0.434024 c -0.234731,0.282833 -0.613766,0.383314 -1.088097,0.288446 -0.400338,-0.08005 -0.850125,-0.02334 -0.999522,0.126059 -0.1494,0.149398 -1.183183,0.235077 -2.297301,0.190395 L 8.0354813,46.931232 7.948043,46.31558 C 7.899955,45.976969 7.7386303,45.699924 7.5895476,45.699924 c -0.2399664,0 -0.1976636,-9.086238 0.1012759,-21.753112 L 7.7618575,20.93695 5.7096797,20.86772 C 4.5809818,20.82964 3.3726937,20.732997 3.0245946,20.652956 l -0.6329071,-0.145526 0.085659,-0.742923 0.085659,-0.742923 5.8478979,-0.02529 5.8479056,-0.02529 0.226847,-0.405357 0.226851,-0.405356 1.860334,0.08673 c 1.023188,0.04771 2.323988,0.08246 2.890669,0.07727 0.682265,-0.0062 1.085002,0.133019 1.192175,0.412307 l 0.161849,0.421772 1.270438,0.0038 c 0.698742,0.0019 1.556624,0.08039 1.90641,0.174039 l 0.635972,0.170302 -0.186361,0.715239 c -0.102492,0.393382 -0.240526,1.300111 -0.306726,2.014955 l -0.120365,1.299734 h 2.201773 2.201774 v -0.744453 c 0,-0.409451 0.151129,-1.394496 0.335842,-2.188994 l 0.33584,-1.444536 h 0.455754 c 0.42635,0 0.928767,0.702771 0.831369,1.162902 -0.02388,0.11287 0.257118,0.205217 0.62447,0.205217 0.867699,0 1.028269,0.300962 1.015853,1.904062 l -0.0102,1.324483 0.873395,0.134047 c 0.480369,0.07372 1.771406,0.142938 2.868974,0.153797 l 1.995576,0.01974 -0.06521,-2.042996 c -0.04191,-1.312355 0.05294,-2.16117 0.265196,-2.37342 0.402095,-0.40209 4.758057,-0.556879 5.690874,-0.202221 l 0.652512,0.248086 v 2.058953 2.058954 l 0.342029,0.0303 c 0.98983,0.08765 1.637001,-0.143823 2.403188,-0.859549 l 0.848393,-0.79249 -0.167135,-1.720125 c -0.09192,-0.946086 -0.234667,-2.36658 -0.317208,-3.156668 L 47.249895,15.875 h 2.077501 2.077501 l 0.03874,0.615656 c 0.100005,1.589355 0.08535,2.003325 -0.07981,2.257398 -0.09785,0.150493 -0.220977,0.953729 -0.273625,1.784969 l -0.09572,1.511346 0.595546,0.639255 c 0.327552,0.351591 0.529857,0.810444 0.449568,1.019678 l -0.145983,0.380419 h 0.801802 0.801804 l 0.03844,-1.461075 c 0.02113,-0.803591 0.16822,-1.802425 0.326842,-2.21963 l 0.288401,-0.758554 0.610778,0.163712 c 0.335927,0.09004 0.806435,0.165395 1.045571,0.167451 l 0.434795,0.0038 -0.06421,1.02609 c -0.0353,0.564347 -0.07708,1.376226 -0.09275,1.804172 l -0.02855,0.77808 -0.547247,0.143112 -0.547247,0.143108 v 0.801129 c 0,0.440623 0.205665,1.619885 0.457033,2.620586 l 0.457032,1.819456 -0.341518,2.614763 c -0.339081,2.5961 -0.637563,6.313709 -0.391181,4.872164 0.07072,-0.413857 0.220282,-0.752467 0.332328,-0.752467 0.112046,0 0.361508,-0.615654 0.554358,-1.368121 l 0.35064,-1.368121 h 0.642624 c 0.860768,0 1.007924,0.314326 0.986511,2.107176 -0.01,0.836744 0.06973,1.433359 0.177149,1.325811 0.107426,-0.107549 0.195322,-1.508839 0.195322,-3.11398 v -2.918434 h 0.682364 0.682367 l -0.02003,4.864068 -0.02003,4.864069 0.295346,-0.09707 c 0.162443,-0.0534 0.334696,-0.364479 0.382786,-0.691299 0.09053,-0.615333 0.823162,-0.804925 1.294364,-0.334963 0.143156,0.142777 0.198476,1.15697 0.123128,2.257397 l -0.136811,1.998142 -0.615653,0.08745 -0.615653,0.08745 v -0.566326 c 0,-0.320942 -0.177818,-0.566279 -0.410435,-0.566279 -0.22574,0 -0.410434,0.241929 -0.410434,0.53762 0,0.295692 -0.246262,0.669417 -0.547248,0.8305 -0.66213,0.35436 -0.676773,0.602027 -0.106634,1.80351 0.249343,0.525449 0.391977,1.345182 0.328569,1.888313 l -0.112049,0.959784 h 2.124419 2.124418 l 0.302239,0.56474 0.302238,0.564739 -0.353439,0.425869 -0.353439,0.425868 -7.013672,-0.163845 c -3.857523,-0.09014 -7.103314,-0.07413 -7.212873,0.03548 -0.221069,0.221216 -5.524363,0.346901 -5.73534,0.135923 z m 12.216857,-1.977557 1.846962,-0.01123 -0.0042,-0.752465 c -0.0021,-0.413857 -0.103771,-0.909376 -0.225481,-1.101154 l -0.221291,-0.348691 -3.034346,-0.140946 -3.034346,-0.14095 -1.008523,1.036886 -1.008523,1.036886 0.506025,0.09497 c 0.278313,0.05224 0.592133,0.175363 0.697377,0.273624 0.105249,0.09827 0.967159,0.152923 1.915367,0.121471 0.948206,-0.03146 2.555144,-0.06223 3.570975,-0.06841 z M 31.225096,47.904362 c -0.33861,-0.282478 -0.615654,-0.681976 -0.615654,-0.887771 0,-0.534112 -0.861199,-1.186785 -1.504931,-1.140532 -0.300985,0.02161 -0.855073,0.06002 -1.231306,0.08533 l -0.68406,0.04601 -0.885437,1.214372 -0.885439,1.21437 3.211239,-0.0092 3.21124,-0.0092 z m 11.540098,-0.08046 c -0.347166,-0.273081 -0.714861,-0.760076 -0.817102,-1.08221 l -0.185894,-0.585697 -0.364438,0.86674 -0.364436,0.866741 -0.612687,-0.0935 c -0.404438,-0.06172 -0.712671,-0.390453 -0.906846,-0.967164 l -0.294159,-0.873667 -0.337552,0.337551 c -0.185653,0.185654 -0.33755,0.458902 -0.33755,0.607221 0,0.148317 -0.26097,0.547457 -0.579928,0.886975 l -0.579929,0.617307 3.005867,-0.04191 3.005864,-0.0419 z M 21.508789,26.530616 c 0.179985,-1.105818 0.274304,-3.928592 0.143128,-4.28346 -0.07261,-0.196436 -0.614021,-0.321671 -1.328612,-0.307326 l -1.20606,0.02422 v 2.54739 2.54739 l 0.889279,0.108047 c 1.27161,0.154499 1.381109,0.108124 1.502265,-0.636249 z m -4.717344,-2.173368 v -2.599427 h -2.325802 -2.325802 l -0.07845,2.678633 -0.07845,2.678633 2.404245,-0.0792 2.404247,-0.0792 z" id="path1"></path></g></svg></svg></g></svg>