<svg width="200" height="80" viewBox="0 0 200 80" fill="none" xmlns="http://www.w3.org/2000/svg">
<path d="M153.062 76.9224C152.902 76.7625 133.344 76.6671 109.601 76.7104C79.0015 76.7663 66.2042 76.6019 65.6546 76.1458C65.2282 75.7919 64.3902 75.6576 63.7924 75.8473C63.1946 76.037 49.4482 76.2805 33.245 76.3884L3.78453 76.5846L3.21009 75.0737C2.73709 73.8296 2.85049 73.3888 3.85223 72.5776C4.88416 71.742 6.26362 71.6193 12.9412 71.769L20.8136 71.9456L19.899 70.5496C19.3184 69.6636 18.4203 69.1537 17.4403 69.1537C15.1606 69.1537 12.6737 65.8071 12.6737 62.7395C12.6737 61.4332 12.41 60.3644 12.0877 60.3644C11.7654 60.3644 11.304 60.3644 11.0623 60.3644C10.8206 60.3644 10.5899 60.6281 10.5496 60.9504C10.5093 61.2726 10.4434 61.8183 10.4031 62.163C10.3628 62.5077 9.73659 62.7055 9.01148 62.6025C7.76973 62.4261 7.69309 62.1428 7.69309 57.7276C7.69309 53.3678 7.78176 53.0274 8.96115 52.8594C9.83163 52.7354 10.3525 53.0673 10.6226 53.9181C10.8572 54.6575 11.4094 55.0815 11.9913 54.9691C12.8507 54.8031 12.9666 53.7091 12.9666 45.7664C12.9666 37.2535 13.0332 36.7225 14.1639 36.2178C15.1564 35.7749 15.4835 34.7624 16.076 30.2989C16.4691 27.3374 16.7873 23.1501 16.783 20.9938C16.775 16.9008 17.297 15.8516 18.6623 17.2169C19.2442 17.7988 19.4308 19.3487 19.3256 22.7284C19.1625 27.9739 19.2179 28.0425 23.4345 27.8167C25.991 27.6798 26.7145 26.898 26.7274 24.2586C26.7354 22.6218 26.9533 22.3957 28.8134 22.0939C29.9557 21.9085 31.3603 21.1765 31.9346 20.4673C32.5089 19.758 33.6178 19.1403 34.3987 19.0947C35.1796 19.049 36.7292 18.5534 37.8422 17.9933C39.5168 17.1505 47.1537 16.0461 49.2954 16.337C49.6177 16.3808 51.6406 16.508 53.7907 16.6197C56.9913 16.7859 58.0352 17.1047 59.5486 18.3783C60.5654 19.2338 61.6219 19.9338 61.8964 19.9338C62.1709 19.9338 62.857 20.3952 63.4209 20.9592C63.9849 21.5232 64.6391 21.9846 64.8746 21.9846C65.7828 21.9846 67.7528 25.1736 67.7528 26.6438C67.7528 27.5519 68.0546 28.1398 68.4852 28.0704C70.0197 27.8229 71.2504 28.9097 71.6107 30.8305C71.9601 32.6928 72.1355 32.8247 74.2634 32.8247H76.542L76.6198 28.5766C76.6626 26.2401 76.7285 21.9553 76.7663 19.0548L76.835 13.7813L72.4404 13.633C66.0041 13.4159 65.2989 13.1752 65.5185 11.2706L65.702 9.67963L78.2249 9.62549C89.0981 9.57847 90.8174 9.4469 91.2764 8.62666C91.7266 7.82234 92.6953 7.72534 97.7968 7.97382C102.084 8.18263 103.974 8.50847 104.439 9.11913C104.833 9.63536 106.106 9.97577 107.662 9.9806C111.989 9.99416 113.022 10.4724 112.559 12.2496C112.339 13.092 112.044 15.0338 111.902 16.5646L111.644 19.3478H116.359H121.074V17.7536C121.074 14.4748 122.471 9.9726 123.488 9.9726C124.401 9.9726 125.477 11.4776 125.269 12.4629C125.218 12.7046 125.819 12.9024 126.606 12.9024C128.439 12.9024 128.789 13.5225 128.789 16.7672C128.789 20.0505 129.495 20.3952 136.016 20.2972L140.703 20.2267L140.728 15.9832C140.743 13.3895 141.039 11.4531 141.489 11.0026C142.416 10.0748 152.357 9.73972 153.933 10.5832C154.889 11.0949 155.059 11.8451 155.059 15.5598V19.9338H157.048C158.439 19.9338 159.59 19.4171 160.876 18.2158C162.898 16.3265 162.816 17.4747 161.725 6.31041L161.396 2.94118H165.845C170.043 2.94118 170.298 3.01539 170.377 4.25957C170.591 7.66309 170.559 8.54958 170.206 9.09367C169.996 9.41594 169.733 11.136 169.62 12.9161C169.449 15.6036 169.631 16.3848 170.69 17.5215C171.392 18.2744 171.825 19.257 171.653 19.7051C171.43 20.2864 171.832 20.5197 173.057 20.5197C174.731 20.5197 174.776 20.4415 174.857 17.3909C174.975 12.8893 175.832 10.9216 177.482 11.3639C178.201 11.5567 179.209 11.718 179.721 11.7224C180.43 11.7284 180.619 12.2555 180.515 13.9278C180.439 15.1363 180.35 16.8749 180.316 17.7913C180.274 18.934 179.887 19.5538 179.083 19.764C177.608 20.1497 177.558 22.098 178.89 27.3979C179.748 30.8126 179.778 31.9861 179.137 36.8935C178.411 42.4529 177.772 50.414 178.3 47.327C178.451 46.4407 178.821 45.7156 179.122 45.7156C179.423 45.7156 179.67 45.386 179.672 44.9832C179.674 44.5803 179.95 43.262 180.286 42.0534C180.774 40.2961 181.177 39.8561 182.299 39.8561C184.17 39.8561 184.484 40.5184 184.438 44.3685C184.416 46.1604 184.587 47.438 184.817 47.2077C185.047 46.9774 185.235 43.9766 185.235 40.5392V34.2896H186.697H188.158L188.115 44.7057C188.085 51.9158 188.267 55.0579 188.705 54.914C189.052 54.7996 189.421 54.1335 189.524 53.4336C189.718 52.1159 191.287 51.7099 192.296 52.7163C192.603 53.022 192.721 55.1939 192.56 57.5504C192.294 61.4372 192.146 61.8464 190.948 62.0165C189.946 62.1589 189.63 61.9135 189.63 60.9911C189.63 60.3038 189.249 59.7785 188.751 59.7785C188.268 59.7785 187.872 60.2965 187.872 60.9297C187.872 61.563 187.345 62.3633 186.7 62.7082C185.282 63.4671 185.251 63.9974 186.472 66.5703C187.006 67.6956 187.311 69.451 187.176 70.6141L186.936 72.6694H191.73C196.176 72.6694 196.549 72.7631 196.861 73.9573C197.615 76.8376 196.978 76.9412 180.786 76.571C172.521 76.382 165.571 76.4157 165.341 76.6458C164.87 77.1174 153.513 77.3732 153.062 76.9224ZM183.176 71.0117C183.171 70.1509 182.973 69.1485 182.736 68.784C182.489 68.4031 179.539 67.9422 175.799 67.7001L169.292 67.2788L167.152 69.482C165.975 70.6937 165.133 71.8055 165.28 71.9525C165.766 72.4384 174.566 72.9658 178.913 72.7696C183.106 72.5803 183.184 72.5481 183.176 71.0117ZM101.552 71.1504C100.737 70.3946 99.9005 69.2406 99.6927 68.586C99.3656 67.5554 98.8193 67.3958 95.6176 67.3958C92.9565 67.3958 91.7039 67.6563 91.1488 68.3253C90.6461 68.9309 89.8344 69.1461 88.8187 68.943C87.9614 68.7715 86.9982 68.893 86.6783 69.2129C86.3583 69.5328 84.1446 69.7163 81.7587 69.6206C77.7681 69.4606 77.4059 69.3411 77.2337 68.1283C77.1307 67.4032 76.7822 66.8099 76.4593 66.8099C76.1364 66.8099 75.957 66.0848 76.0606 65.1985C76.2374 63.6867 76.0951 63.576 73.7587 63.407C71.3426 63.2322 71.2685 63.2791 71.2685 64.9838C71.2685 65.9501 70.9885 66.9137 70.6464 67.1252C70.3042 67.3366 69.7995 68.1009 69.5248 68.8234C69.1824 69.724 68.5948 70.1028 67.6566 70.0279C66.1066 69.9041 63.6511 70.8554 63.6511 71.5797C63.6511 72.0082 71.0248 72.2099 95.5012 72.4505L103.034 72.5245L101.552 71.1504ZM127.036 71.3132C126.335 70.5674 125.762 69.7031 125.762 69.3926C125.762 68.4504 123.785 67.0975 122.539 67.1871C121.894 67.2334 120.708 67.3026 119.902 67.3408C118.638 67.4008 116.398 69.7859 115.312 72.2299C115.205 72.4716 118.085 72.6694 121.713 72.6694H128.31L127.036 71.3132ZM152.339 71.8855C151.857 71.6155 150.955 70.5608 150.334 69.5417C149.619 68.37 149.203 68.0504 149.202 68.6724C149.199 70.0189 147.681 71.4278 146.425 71.2497C145.853 71.1686 145.116 70.274 144.775 69.2496C144.297 67.8085 144.004 67.5526 143.457 68.0992C143.07 68.4858 142.754 69.062 142.754 69.3796C142.754 69.6972 142.208 70.5381 141.541 71.2482L140.328 72.5392L146.771 72.4578C150.584 72.4096 152.857 72.176 152.339 71.8855ZM50.7603 71.6147C50.7603 70.099 48.997 69.7396 41.5609 69.7396C37.2747 69.7396 33.7678 69.8499 33.7678 69.9847C33.7678 70.1195 33.6077 70.6468 33.4121 71.1566C33.0975 71.9765 34.0773 72.0834 41.9084 72.0834C46.7769 72.0834 50.7603 71.8725 50.7603 71.6147ZM106.147 26.3312C106.157 25.8742 106.379 24.6327 106.64 23.5724C106.901 22.512 106.936 20.3468 106.718 18.7607L106.322 15.877L103.737 15.9289L101.152 15.9807V21.4358V26.8909L103.056 27.1223C105.626 27.4345 106.124 27.3069 106.147 26.3312ZM96.1713 21.1057V15.5391H91.1907H86.2101L86.0421 21.2753L85.8742 27.0114L91.0227 26.8418L96.1712 26.6722L96.1713 21.1057Z" fill="black"/>
</svg>
